<?xml version="1.0" encoding="UTF-8"?>
<!DOCTYPE svg PUBLIC "-//W3C//DTD SVG 1.1//EN" "http://www.w3.org/Graphics/SVG/1.1/DTD/svg11.dtd">
<!-- Creator: CorelDRAW 2018 (64 Bit Versão de avaliação) -->
<svg xmlns="http://www.w3.org/2000/svg" xml:space="preserve" width="119.063mm" height="135.467mm" version="1.1" style="shape-rendering:geometricPrecision; text-rendering:geometricPrecision; image-rendering:optimizeQuality; fill-rule:evenodd; clip-rule:evenodd"
viewBox="0 0 11906.3 13546.7"
 xmlns:xlink="http://www.w3.org/1999/xlink"
 enable-background="new 0 0 512 512">
 <defs>
  <style type="text/css">
   <![CDATA[
    .fil1 {fill:#CCEEFF}
    .fil0 {fill:#E6F7FF}
    .fil2 {fill:white;fill-opacity:0.301961}
   ]]>
  </style>
 </defs>
 <g id="Camada_x0020_1">
  <metadata id="CorelCorpID_0Corel-Layer"/>
  <g id="_1611374210304">
   <path class="fil0" d="M4349.75 11535.86c19.74,108.4 15.9,237.2 15.9,399.49 0,904.9 698.5,1611.34 1587.5,1611.34 873.1,0 1587.5,-714.4 1587.5,-1587.5 0,-188.86 -3.73,-315.46 15.9,-423.33l-1603.4 0 -1603.4 0z"/>
   <path class="fil1" d="M7540.65 11959.19c0,-188.89 -3.73,-315.49 15.9,-423.33l-1603.4 0 0 2010.83c873.1,0 1587.5,-714.4 1587.5,-1587.5z"/>
   <path class="fil2" d="M8802.71 8130.67c-769.94,1016 -1206.5,2190.75 -1246.19,3405.19l-3206.75 0c-47.63,-1174.75 -484.19,-2341.56 -1301.75,-3484.56 -547.69,-762 -769.94,-1698.63 -627.06,-2635.25 314.06,-2030.94 1924.05,-3007.78 3532.19,-3001.43 1767.95,6.35 3533.51,1201.47 3571.35,3490.12 6.83,833.17 -232.99,1571.47 -721.78,2225.94l-0.01 -0.01z"/>
   <g>
    <path class="fil0" d="M7027.49 5699.02c-155.02,-155.02 -406.19,-155.02 -561.21,0l-513.13 513.13 -513.16 -513.16c-155.02,-155.02 -406.19,-155.02 -561.21,0 -155.02,155.02 -155.02,406.19 0,561.21l677.49 677.49 0 1423.17c0,219.37 177.51,396.88 396.88,396.88 219.37,0 396.88,-177.51 396.88,-396.88l0 -1423.17 677.47 -677.47c155.05,-155.05 155.05,-406.19 0,-561.21l-0.01 0.01z"/>
    <path class="fil0" d="M6350.03 8360.86l0 -1423.17 677.47 -677.47c155.02,-155.02 155.02,-406.19 0,-561.21 -155.02,-155.02 -406.19,-155.02 -561.21,0l-513.13 513.13 0 2545.58c219.37,0 396.88,-177.51 396.88,-396.88l-0.01 0.02z"/>
   </g>
  </g>
 </g>
</svg>
